<svg id="Layer_1" enable-background="new 0 0 512 512" height="512" viewBox="0 0 512 512" width="512" xmlns="http://www.w3.org/2000/svg"><circle cx="256" cy="256" fill="#c7d5ff" r="256"/><circle cx="256" cy="256" fill="#c7d5ff" r="256"/><path d="m256 0v5.187c116.693 23.841 204.483 127.074 204.483 250.813s-87.79 226.972-204.483 250.813v5.187c141.385 0 256-114.615 256-256s-114.615-256-256-256z" fill="#b3c6ff"/><path d="m511.982 254.603c-.516 40.971-55.404 76.524-135.858 94.544-18.763 95.325-65.47 162.853-120.124 162.853 141.385 0 256-114.615 256-256 0-.467-.015-.931-.018-1.397z" fill="#96b1ff"/><path d="m511.982 254.603c-.331 26.282-23.035 50.334-60.509 68.959-20.359 74.6-73.612 135.627-143.208 166.528-15.974 14.084-33.659 21.91-52.265 21.91 141.385 0 256-114.615 256-256 0-.467-.015-.931-.018-1.397z" fill="#85a4ff"/><path d="m135.876 349.147c-80.449-18.019-135.335-53.568-135.858-94.535-.003.463-.018.924-.018 1.388 0 141.385 114.615 256 256 256-54.654 0-101.361-67.528-120.124-162.853z" fill="#b3c6ff"/><path d="m127.071 256c0 32.864 3.123 64.279 8.805 93.147 35.824 8.024 76.707 12.577 120.124 12.577s84.3-4.553 120.124-12.577c5.682-28.868 8.805-60.283 8.805-93.147 0-141.385-57.724-256-128.929-256s-128.929 114.615-128.929 256z" fill="#e0e8ff"/><path d="m376.124 349.147c-35.824 8.024-76.708 12.577-120.124 12.577s-84.3-4.553-120.124-12.577c18.763 95.325 65.47 162.853 120.124 162.853s101.361-67.528 120.124-162.853z" fill="#c7d5ff"/></svg>