<svg id="Layer_1" enable-background="new 0 0 512 512" height="512" viewBox="0 0 512 512" width="512" xmlns="http://www.w3.org/2000/svg"><g><path d="m16.483 439.736 239.403-439.736 239.631 439.736c0 39.91-107.235 72.264-239.517 72.264s-239.517-32.354-239.517-72.264z" fill="#fce767"/></g><path d="m255.886 0-25.382 46.622 214.224 393.114c0 37.322-93.779 68.036-214.123 71.863 8.345.265 16.817.401 25.395.401 132.282 0 239.517-32.354 239.517-72.264z" fill="#fcdf2b"/><path d="m408.215 279.531-152.329-279.531-152.192 279.548c8.818 23.011 73.622 40.877 152.257 40.877 78.654-.001 143.47-17.874 152.264-40.894z" fill="#fcf2b4"/><path d="m371.136 304.69c20.042-6.882 33.417-15.574 37.078-25.159l-152.328-279.531-25.382 46.622z" fill="#fced90"/></svg>