<svg id="Layer_1" enable-background="new 0 0 512 512" height="512" viewBox="0 0 512 512" width="512" xmlns="http://www.w3.org/2000/svg"><g><g><g><path d="m512 224.482v196.998c0 49.993-114.615 90.52-256 90.52s-256-40.527-256-90.52v-196.998z" fill="#ff6a2e"/><path d="m460.491 224.482v196.998c0 46.919-100.955 85.499-230.245 90.066 8.47.299 17.061.454 25.754.454 141.385 0 256-40.527 256-90.52v-196.998z" fill="#fc5c1c"/><ellipse cx="256" cy="224.482" fill="#ffac8a" rx="256" ry="90.52"/></g></g><g><g><path d="m415.884 56.534v123.034c0 31.223-71.583 56.534-159.884 56.534s-159.884-25.311-159.884-56.534v-123.034z" fill="#ff8959"/><path d="m364.375 56.534v123.034c0 28.122-58.075 51.445-134.129 55.8 8.385.48 16.986.734 25.755.734 88.301 0 159.884-25.311 159.884-56.534v-123.034z" fill="#ff7b45"/><ellipse cx="256" cy="56.534" fill="#ffac8a" rx="159.884" ry="56.534"/></g></g></g></svg>