<svg id="Layer_1" enable-background="new 0 0 512 512" height="512" viewBox="0 0 512 512" width="512" xmlns="http://www.w3.org/2000/svg"><g><g><path d="m512 227.467c0 141.385-114.615 256-256 256s-256-114.615-256-256z" fill="#96b1ff"/><path d="m460.491 227.467c0 132.692-100.955 241.799-230.245 254.716 8.471.846 17.061 1.284 25.755 1.284 141.385 0 256-114.615 256-256z" fill="#85a4ff"/><ellipse cx="256" cy="227.467" fill="#b3c6ff" rx="256" ry="98.499"/></g><path d="m256 28.533c-89.498 0-162.051 72.553-162.051 162.051 0 34.435 72.553 62.351 162.051 62.351s162.051-27.915 162.051-62.351c0-89.499-72.553-162.051-162.051-162.051z" fill="#e0e8ff"/></g></svg>