<svg id="Layer_1" enable-background="new 0 0 512 512" height="512" viewBox="0 0 512 512" width="512" xmlns="http://www.w3.org/2000/svg"><g><path d="m489.247 372.851h.002l-.031-.024c-2.706-2.293-5.641-4.538-8.78-6.734l-123.711-94.872h-201.453l-123.711 94.872c-3.139 2.195-6.074 4.44-8.78 6.734l-.031.024h.002c-14.613 12.393-22.754 26.156-22.754 40.65 0 54.4 114.615 98.499 256 98.499s256-44.099 256-98.499c0-14.494-8.141-28.257-22.753-40.65z" fill="#fc7bd6"/><path d="m489.247 372.851h.002l-.031-.024c-2.706-2.293-5.641-4.538-8.78-6.734l-123.711-94.872h-51.509l123.711 94.872c3.139 2.195 6.074 4.44 8.78 6.734l.031.024h-.002c14.613 12.393 22.753 26.156 22.753 40.651 0 51.055-100.955 93.035-230.245 98.004 8.47.325 17.061.494 25.754.494 141.385 0 256-44.099 256-98.499 0-14.494-8.141-28.257-22.753-40.65z" fill="#fc65cf"/><path d="m494.724 134.142-478.054-.606 138.604 137.686s21.402 26.323 100.726 26.323c78.637 0 100.726-26.323 100.726-26.323z" fill="#fc47c7"/><ellipse cx="256" cy="98.499" fill="#fcb1e6" rx="256" ry="98.499"/></g></svg>