<svg id="Layer_1" enable-background="new 0 0 512 512" height="512" viewBox="0 0 512 512" width="512" xmlns="http://www.w3.org/2000/svg"><path d="m256 67.656c-141.385 0-256 84.325-256 188.344s114.615 188.344 256 188.344 256-84.325 256-188.344-114.615-188.344-256-188.344zm107.76 232.249c-58.349 42.928-157.179 42.922-215.519 0-29.764-21.897-29.836-55.558 0-77.508 58.349-42.928 157.179-42.922 215.519 0 29.764 21.898 29.835 55.557 0 77.508z" fill="#ffac8a"/><path d="m511.966 255.989c-.002-81.235-126.027-81.106-125.856.129-.249 50.088-94.181 65.669-130.112 65.668-35.807-.001-130.067-15.63-130.106-65.777-1.562-81.046-124.374-81.169-125.892-.018.001 104.019 114.616 188.342 256 188.342 141.385 0 256-84.324 256-188.344 0 0-.026 0-.034 0z" fill="#ff8959"/><g><path d="m511.966 255.989c-.001-51.913-51.468-70.598-88.577-56.124 20.914 8.161 37.264 26.864 37.265 56.124h.034c0 97.648-101.006 177.94-230.344 187.409 8.438.618 16.997.934 25.656.934 141.385 0 256-84.324 256-188.344 0 .001-.026.001-.034.001z" fill="#ff7b45"/></g></svg>