<svg id="Layer_1" enable-background="new 0 0 512 512" height="512" viewBox="0 0 512 512" width="512" xmlns="http://www.w3.org/2000/svg"><g><path d="m387.56 508.228c0-58.326-58.902-105.608-131.56-105.608s-131.56 47.282-131.56 105.608h-124.44c0-45.058 18.065-242.804 48.699-298.956 46.527-85.285 122.048-161.356 207.301-161.356 79.05 0 149.731 65.402 196.69 142.909 37.031 61.119 59.31 267.364 59.31 317.403z" fill="#fcdc19"/><path d="m387.56 209.271c0-58.326-58.902-105.608-131.56-105.608s-131.56 47.282-131.56 105.608h-124.44c0-113.494 114.615-205.499 256-205.499s256 92.005 256 205.499z" fill="#fcf2b4"/><path d="m0 209.271h124.44v298.956h-124.44z" fill="#fce767"/><path d="m387.56 209.271h124.44v298.956h-124.44z" fill="#fce767"/><path d="m461.25 209.271h50.75v298.956h-50.75z" fill="#fcdf2b"/></g></svg>