<svg id="Layer_1" enable-background="new 0 0 512 512" height="512" viewBox="0 0 512 512" width="512" xmlns="http://www.w3.org/2000/svg"><g><g><g><path d="m170.693 0-170.693 85.882 170.693 85.883 170.693-85.883z" fill="#fcb1e6"/></g><path d="m170.693 171.493.014 128.214 170.646-85.859.033-127.966z" fill="#fc7bd6"/><path d="m289.874 111.718-.015 128.039 51.494-25.909.033-127.966z" fill="#fc65cf"/></g><g><g><path d="m341.353 213.848-170.646 85.859 170.646 85.859 170.647-85.859z" fill="#fcb1e6"/></g><path d="m341.353 385.294v126.706l170.647-85.859v-126.434z" fill="#fc7bd6"/><path d="m460.491 325.542v126.515l51.509-25.916v-126.434z" fill="#fc65cf"/><path d="m341.353 385.294-170.646-85.587-.014.008v-128.222l-170.693-85.611v254.399l170.693 85.882v-.014l170.66 85.851z" fill="#fc47c7"/></g></g></svg>