<svg id="Layer_1" enable-background="new 0 0 512 512" height="512" viewBox="0 0 512 512" width="512" xmlns="http://www.w3.org/2000/svg"><g><path d="m255.93 88.611-161.417 117.468 61.656 190.066h199.522l61.656-190.066z" fill="#7affd5"/><path d="m255.93 512 151.665-44.253-51.904-71.602h-199.523l-51.904 71.602z" fill="#15aa78"/><path d="m255.93 512 151.665-44.253-51.904-71.602h-199.523l-51.904 71.602z" fill="#15aa78"/><path d="m255.93 481.906-151.666-14.159 151.666 44.253 151.665-44.253z" fill="#13966a"/><path d="m107.234 53.571-96.731 125.093 84.01 27.369 161.417-117.468-.027-88.485z" fill="#1ee3a5"/><path d="m404.625 53.491 96.731 125.094-84.009 27.369-161.417-117.468.026-88.486z" fill="#36ffc0"/><path d="m496.591 336.868-88.965 130.75-51.904-71.603 61.77-190.029 84.043-27.268z" fill="#1ee3a5"/><path d="m501.535 178.718-35.811 149.601-58.098 139.299 88.965-130.75z" fill="#1cd198"/><path d="m15.409 336.909 88.965 130.749 51.904-71.602-61.77-190.03-84.043-27.267z" fill="#36ffc0"/></g></svg>