<svg id="Layer_1" enable-background="new 0 0 512 512" height="512" viewBox="0 0 512 512" width="512" xmlns="http://www.w3.org/2000/svg"><g><g><g><path d="m256 0-108.416 54.229 108.416 54.228 108.416-54.228z" fill="#fcb1e6"/></g><g><path d="m147.584 89.74-108.417 54.229 325.249 158.569 108.417-54.229z" fill="#fcb1e6"/></g><path d="m256 108.286v403.714l108.416-54.229v-403.542z" fill="#fc7bd6"/><path d="m312.907 79.911v403.625l51.509-25.765v-403.542z" fill="#fc65cf"/></g><path d="m364.416 302.538-108.416-53.364v-140.889l-108.416-54.056v142.034l-108.417-52.294.155 121.516 108.262 52.219v140.067l108.416 54.229v-141.386l108.416 53.364z" fill="#fc47c7"/><path d="m472.833 248.309-108.417 54.229-108.416-53.364 108.416-53.57z" fill="#fcb1e6"/><path d="m364.416 423.978v-121.44l108.417-54.229v118.326z" fill="#fc7bd6"/><path d="m421.323 274.074v119.805l51.509-27.244v-118.326z" fill="#fc65cf"/></g></svg>