<svg id="Layer_1" enable-background="new 0 0 512 512" height="512" viewBox="0 0 512 512" width="512" xmlns="http://www.w3.org/2000/svg"><g><g><path d="m355.235 38.473 156.765 373.3c0 55.354-114.615 100.227-256 100.227s-256-44.873-256-100.227l156.65-373.38z" fill="#96b1ff"/></g><path d="m355.235 38.473-198.586-.08-.009.021 147.085.06 156.765 373.3c0 51.95-100.955 94.668-230.245 99.724 8.471.33 17.062.502 25.755.502 141.385 0 256-44.873 256-100.227z" fill="#85a4ff"/><g><path d="m449.064 261.905-93.829-223.432-198.586-.08-94.108 224.311c28.287 23.171 112.669 53.046 193.459 53.046 80.765 0 162.425-28.501 193.064-53.845z" fill="#b3c6ff"/></g><g><path d="m355.235 38.473-198.586-.08-.009.021 147.085.06 103.707 246.956c17.744-7.517 32.138-15.672 41.63-23.524z" fill="#a3baff"/></g><ellipse cx="256" cy="39.212" fill="#e0e8ff" rx="98.189" ry="39.212"/></g></svg>