<svg id="Layer_1" enable-background="new 0 0 512 512" height="512" viewBox="0 0 512 512" width="512" xmlns="http://www.w3.org/2000/svg"><g><path d="m471.533 73.485-108.864-73.485-106.669 72.004-106.669-72.004-108.864 73.485 106.669 72.005-106.669 72.004 108.864 73.485 106.669-72.004 106.669 72.004 108.864-73.485-106.669-72.004z" fill="#ffac8a"/><path d="m256 218.975-106.669 72.004v221.021l106.669-72.004z" fill="#ff8959"/><path d="m256 218.975-106.669 72.004v221.021l106.669-72.004z" fill="#ff8959"/><path d="m204.491 253.745v221.021l51.509-34.77v-221.021z" fill="#ff7b45"/><path d="m40.467 217.494v221.021l108.864 73.485v-221.021z" fill="#ff6a2e"/><path d="m362.669 290.979v221.021l-106.669-72.004v-221.021z" fill="#ff6a2e"/><path d="m471.533 217.494-108.864 73.485v221.021l108.864-73.485z" fill="#ff8959"/><path d="m420.024 252.264v221.02l51.509-34.769v-221.021z" fill="#ff7b45"/><path d="m471.533 73.485v144.009l-106.669-72.004z" fill="#ff6a2e"/><path d="m420.024 108.255v74.469l51.509 34.77v-144.009z" fill="#fc5c1c"/><path d="m40.467 73.485v144.009l106.669-72.004z" fill="#ff8959"/></g></svg>