<svg id="Layer_1" enable-background="new 0 0 512 512" height="512" viewBox="0 0 512 512" width="512" xmlns="http://www.w3.org/2000/svg"><g><g><path d="m494.724 300.125-478.054-.752 138.604 170.447s21.402 32.586 100.726 32.586c78.637 0 100.726-32.586 100.726-32.586z" fill="#fcdc19"/><path d="m16.67 299.373.066.081 426.48.67-137.999 169.696s-17.166 25.305-75.066 31.313c7.844.809 16.434 1.273 25.849 1.273 78.637 0 100.726-32.586 100.726-32.586l137.998-169.695z" fill="#f5d200"/><path d="m162.733 35.685-145.154 176.19s-17.579 15.762-17.579 44.125c0 67.343 114.615 121.935 256 121.935s256-54.592 256-121.935c0-26.45-16.367-43.373-16.367-43.373l-145.488-175.553z" fill="#fce767"/></g><ellipse cx="256" cy="44.01" fill="#fcf2b4" rx="96.097" ry="34.415"/></g></svg>