<svg id="Layer_1" enable-background="new 0 0 512 512" height="512" viewBox="0 0 512 512" width="512" xmlns="http://www.w3.org/2000/svg"><g><ellipse cx="256" cy="256" fill="#7affd5" rx="180.533" ry="256"/><g><path d="m157.117 285.423c-.43-9.657-.658-19.471-.658-29.423 0-141.385 44.566-256 99.541-256-96.684 0-175.613 107.775-180.308 243.224 2.922 17.662 34.606 33.075 81.425 42.199z" fill="#36ffc0"/><path d="m157.117 285.423c-46.819-9.124-78.503-24.537-81.426-42.199-.147 4.233-.224 8.492-.224 12.776 0 141.385 80.827 256 180.533 256-51.105 0-93.208-99.053-98.883-226.577z" fill="#1ee3a5"/><path d="m355.541 256c0 9.952-.229 19.766-.658 29.423 46.819-9.124 78.503-24.537 81.426-42.199-4.696-135.449-83.625-243.224-180.309-243.224 54.975 0 99.541 114.615 99.541 256z" fill="#1ee3a5"/><g><path d="m256 0c13.939 0 27.205 7.38 39.249 20.684 58.235 33.955 99.589 112.332 99.589 254.136 24.234-8.653 39.486-19.605 41.47-31.596-4.695-135.449-83.624-243.224-180.308-243.224z" fill="#1cd198"/></g><path d="m354.883 285.423c-5.675 127.524-47.778 226.577-98.883 226.577 99.705 0 180.533-114.615 180.533-256 0-4.284-.077-8.543-.224-12.776-2.923 17.662-34.607 33.075-81.426 42.199z" fill="#15aa78"/><path d="m436.308 243.224c-1.984 11.991-17.236 22.943-41.47 31.596-4.402 85.893-31.001 151.607-73.937 199.922-17.963 20.214-46.403 37.258-64.901 37.258 99.705 0 180.533-114.615 180.533-256 0-4.284-.078-8.543-.225-12.776z" fill="#13966a"/><path d="m354.883 285.423c-28.405 5.535-62.375 8.758-98.883 8.758s-70.478-3.223-98.883-8.758c5.675 127.524 47.778 226.577 98.883 226.577s93.208-99.053 98.883-226.577z" fill="#36ffc0"/></g></g></svg>