<svg id="Layer_1" enable-background="new 0 0 512 512" height="512" viewBox="0 0 512 512" width="512" xmlns="http://www.w3.org/2000/svg"><g><path d="m512 182.867c0-100.995-47.742-182.867-106.636-182.867-21.523 0-268.937 124.743-322.47 151.04l48.197 356.324 294.715-144.989-.001-.011c58.651-27.04 86.195-90.493 86.195-179.497z" fill="#fc7bd6"/><g><path d="m512 182.867c0-100.995-47.742-182.867-106.636-182.867-3.094 0-10.863 2.582-22.047 7.075 44.563 21.924 82.839 98.193 82.839 181.66 0 77.71-26.666 151.716-71.031 188.734l30.681-15.094-.001-.011c58.651-27.04 86.195-90.493 86.195-179.497z" fill="#fc65cf"/></g><g><g><ellipse cx="106.636" cy="329.133" fill="#fcb1e6" rx="106.636" ry="182.867"/></g></g></g></svg>