<svg id="Layer_1" enable-background="new 0 0 512 512" height="512" viewBox="0 0 512 512" width="512" xmlns="http://www.w3.org/2000/svg"><g><path d="m304.182 0c-50.976 0-98.464 19.64-135.141 51.594-44.183 38.493-114.4 102.801-114.4 102.801l334.463 42.926 26.532 314.679 96.364-96.389v-202.627-5.112c0-112.412-95.434-207.872-207.818-207.872z" fill="#ffac8a"/><g><path d="m415.636 511.973v.027l.027-.027z" fill="#ffac8a"/></g><path d="m120.859 512 96.364-96.389v-250.081h-96.364z" fill="#ff6a2e"/><path d="m289.75 512 2.991-218.29c-.109-45.96-38.954-84.752-84.923-84.752-46.033 0-84.923 38.9-84.923 84.946l-2.036 218.096h-120.859v-218.096c0-27.775 5.578-54.871 16.58-80.536 10.563-24.643 25.621-46.842 44.756-65.983 19.136-19.141 41.33-34.203 65.965-44.769 25.659-11.005 52.748-16.584 80.516-16.584s54.857 5.58 80.515 16.584c24.636 10.566 46.83 25.629 65.966 44.768 19.135 19.141 34.194 41.341 44.757 65.983 11.002 25.666 16.58 52.762 16.58 80.538v218.095z" fill="#ff8959"/><g><path d="m399.056 213.367c-10.563-24.642-25.622-46.842-44.757-65.983-19.136-19.14-41.33-34.202-65.966-44.768-25.658-11.004-52.747-16.584-80.515-16.584-8.659 0-17.251.543-25.755 1.624 18.768 2.384 37.103 7.387 54.761 14.96 24.636 10.566 46.83 25.629 65.966 44.768 19.135 19.141 34.194 41.341 44.757 65.983 11.002 25.666 16.58 52.762 16.58 80.538v218.095h51.509v-218.096c0-27.775-5.579-54.872-16.58-80.537z" fill="#ff7b45"/></g></g></svg>