<svg id="Layer_1" enable-background="new 0 0 512 512" height="512" viewBox="0 0 512 512" width="512" xmlns="http://www.w3.org/2000/svg"><g><circle cx="256" cy="256" fill="#fcb1e6" r="256"/><path d="m256 0c-8.693 0-17.284.438-25.755 1.284 129.291 12.917 230.246 122.024 230.246 254.716s-100.955 241.799-230.246 254.716c8.471.846 17.062 1.284 25.755 1.284 141.385 0 256-114.615 256-256s-114.615-256-256-256z" fill="#fca9e4"/><g><path d="m256 0c92.767 0 167.969 114.615 167.969 256s-75.202 256-167.969 256z" fill="#fc7bd6"/><path d="m256 0c47.018 0 85.133 114.615 85.133 256s-38.115 256-85.133 256z" fill="#fc47c7"/></g></g></svg>