<svg id="Layer_1" enable-background="new 0 0 512 512" height="512" viewBox="0 0 512 512" width="512" xmlns="http://www.w3.org/2000/svg"><g><g><path d="m476.848 128v256l-220.848 128-220.848-128v-256z" fill="#fc47c7"/></g><g><path d="m256 512v-256l220.848-128v256z" fill="#fc7bd6"/><path d="m425.339 157.854v256l51.509-29.854v-256z" fill="#fc65cf"/></g><g><g><g><path d="m256 0-220.848 128 220.848 128 220.848-128z" fill="#fcb1e6"/></g></g></g></g><g><path d="m75.073 368.594c-2.665 0-5.259-1.38-6.692-3.853-2.14-3.691-.882-8.42 2.81-10.559l17.826-10.332c3.692-2.138 8.419-.881 10.559 2.811 2.14 3.691.882 8.42-2.81 10.559l-17.826 10.332c-1.219.706-2.552 1.042-3.867 1.042zm357.512-2.517c-1.315 0-2.648-.336-3.867-1.042l-17.826-10.332c-3.692-2.14-4.95-6.868-2.81-10.559 2.139-3.693 6.869-4.949 10.559-2.811l17.826 10.332c3.692 2.14 4.95 6.868 2.81 10.559-1.433 2.473-4.027 3.853-6.692 3.853zm-303.142-28.994c-2.665 0-5.259-1.38-6.692-3.853-2.14-3.691-.882-8.42 2.81-10.559l17.826-10.332c3.691-2.138 8.419-.881 10.559 2.811 2.14 3.691.882 8.42-2.81 10.559l-17.826 10.331c-1.219.706-2.552 1.043-3.867 1.043zm248.772-2.518c-1.315 0-2.648-.336-3.867-1.042l-17.826-10.332c-3.692-2.14-4.95-6.868-2.81-10.559 2.139-3.693 6.868-4.948 10.559-2.811l17.826 10.332c3.692 2.14 4.95 6.868 2.81 10.559-1.433 2.473-4.026 3.853-6.692 3.853zm-194.403-28.995c-2.665 0-5.259-1.38-6.692-3.853-2.14-3.692-.882-8.42 2.81-10.559l17.826-10.332c3.693-2.138 8.419-.882 10.559 2.811 2.14 3.691.882 8.419-2.81 10.559l-17.826 10.332c-1.219.706-2.552 1.042-3.867 1.042zm140.034-2.516c-1.315 0-2.648-.336-3.867-1.042l-17.826-10.332c-3.692-2.14-4.95-6.868-2.81-10.559 2.139-3.692 6.869-4.949 10.559-2.811l17.826 10.332c3.692 2.14 4.95 6.868 2.81 10.559-1.433 2.473-4.026 3.853-6.692 3.853zm-85.665-28.995c-2.665 0-5.259-1.38-6.692-3.853-2.14-3.691-.882-8.42 2.81-10.559l17.826-10.332c2.395-1.388 5.352-1.388 7.748 0l17.76 10.333c3.692 2.14 4.95 6.867 2.81 10.559-2.139 3.691-6.867 4.948-10.559 2.811l-13.884-8.087-13.951 8.087c-1.22.705-2.553 1.041-3.868 1.041z" fill="#c72698"/></g></svg>