<svg id="Layer_1" enable-background="new 0 0 512 512" height="512" viewBox="0 0 512 512" width="512" xmlns="http://www.w3.org/2000/svg"><g><g><path d="m256 39.5-256 433h275.18 236.82z" fill="#7affd5"/><path d="m512 472.5-256-164.006-256 164.006" fill="#1ee3a5"/><path d="m256 308.494 182.153 164.006h73.847z" fill="#1cd198"/></g><g><path d="m512 472.5h-512" fill="#7affd5"/><g fill="#15aa78"><path d="m305.72 349.523 17.349 11.114c1.29.827 2.733 1.221 4.16 1.221 2.545 0 5.038-1.258 6.513-3.559 2.302-3.594 1.255-8.372-2.339-10.674l-17.349-11.114c-3.594-2.303-8.371-1.255-10.674 2.338-2.301 3.594-1.254 8.372 2.34 10.674z"/><path d="m367.307 388.979 17.349 11.115c1.291.827 2.734 1.221 4.161 1.221 2.545 0 5.038-1.257 6.513-3.559 2.302-3.593 1.256-8.372-2.338-10.674l-17.349-11.115c-3.594-2.303-8.372-1.257-10.674 2.338-2.301 3.592-1.255 8.372 2.338 10.674z"/><path d="m428.895 428.436 17.349 11.114c1.291.827 2.734 1.221 4.16 1.221 2.546 0 5.038-1.258 6.514-3.559 2.302-3.594 1.255-8.372-2.338-10.674l-17.349-11.114c-3.594-2.302-8.373-1.254-10.674 2.338-2.301 3.593-1.255 8.372 2.338 10.674z"/><path d="m125.13 400.067c1.427 0 2.871-.395 4.161-1.221l17.349-11.115c3.593-2.302 4.64-7.081 2.338-10.674-2.302-3.594-7.081-4.64-10.674-2.338l-17.349 11.115c-3.593 2.302-4.64 7.081-2.338 10.674 1.476 2.303 3.968 3.559 6.513 3.559z"/><path d="m252.467 319.934 3.533-2.264 5.48 3.511c1.291.827 2.734 1.221 4.161 1.221 2.545 0 5.038-1.257 6.513-3.559 2.302-3.593 1.256-8.372-2.338-10.674l-9.648-6.181c-2.54-1.628-5.796-1.628-8.336 0l-7.701 4.934c-3.593 2.302-4.64 7.081-2.338 10.674 2.302 3.592 7.081 4.637 10.674 2.338z"/><path d="m186.718 360.611c1.427 0 2.87-.394 4.16-1.221l17.349-11.114c3.593-2.302 4.64-7.081 2.339-10.674-2.302-3.595-7.081-4.642-10.674-2.338l-17.349 11.114c-3.594 2.302-4.64 7.08-2.339 10.674 1.477 2.302 3.969 3.559 6.514 3.559z"/><path d="m63.542 439.523c1.427 0 2.87-.394 4.16-1.221l17.349-11.114c3.593-2.302 4.64-7.081 2.339-10.674-2.302-3.595-7.082-4.64-10.674-2.338l-17.348 11.114c-3.593 2.302-4.64 7.08-2.339 10.674 1.476 2.303 3.968 3.559 6.513 3.559z"/><path d="m256 274.896c4.267 0 7.726-3.459 7.726-7.726v-20.604c0-4.268-3.459-7.726-7.726-7.726s-7.726 3.459-7.726 7.726v20.604c0 4.268 3.459 7.726 7.726 7.726z"/><path d="m256 136.852c4.267 0 7.726-3.459 7.726-7.726v-20.604c0-4.268-3.459-7.726-7.726-7.726s-7.726 3.459-7.726 7.726v20.604c0 4.267 3.459 7.726 7.726 7.726z"/><path d="m256 205.874c4.267 0 7.726-3.459 7.726-7.726v-20.604c0-4.268-3.459-7.726-7.726-7.726s-7.726 3.459-7.726 7.726v20.604c0 4.267 3.459 7.726 7.726 7.726z"/></g></g></g></svg>