<svg id="Layer_1" enable-background="new 0 0 512 512" height="512" viewBox="0 0 512 512" width="512" xmlns="http://www.w3.org/2000/svg"><g><g><circle cx="256" cy="256" fill="#ffac8a" r="249.284"/><path d="m256 6.716c-8.465 0-16.831.427-25.079 1.251 125.898 12.577 224.205 118.823 224.205 248.033s-98.307 235.456-224.205 248.033c8.248.824 16.614 1.251 25.079 1.251 137.676 0 249.284-111.608 249.284-249.284s-111.609-249.284-249.284-249.284z" fill="#ff9b78"/><g><ellipse cx="256" cy="256" fill="#ff8959" rx="248.476" ry="82.235"/><path d="m267.693 345.67c-4.101 0-7.457-3.293-7.52-7.408-.064-4.155 3.252-7.575 7.407-7.638 6.632-.102 13.313-.294 19.859-.57 4.12-.198 7.659 3.047 7.834 7.199s-3.048 7.659-7.199 7.834c-6.679.282-13.498.478-20.263.582-.039.001-.079.001-.118.001zm-41.123-.482c-.099 0-.199-.002-.299-.006-6.768-.264-13.581-.625-20.25-1.071-4.146-.277-7.282-3.864-7.005-8.01s3.861-7.286 8.009-7.004c6.531.437 13.204.79 19.834 1.049 4.152.162 7.387 3.66 7.224 7.812-.159 4.052-3.494 7.23-7.513 7.23zm102.212-3.014c-3.816 0-7.085-2.891-7.477-6.767-.418-4.134 2.594-7.824 6.728-8.243 6.629-.67 13.257-1.445 19.697-2.304 4.127-.552 7.903 2.345 8.452 6.464s-2.345 7.903-6.464 8.452c-6.599.879-13.385 1.673-20.171 2.359-.256.027-.512.039-.765.039zm-163.194-2.029c-.322 0-.647-.021-.975-.064-6.798-.879-13.565-1.87-20.111-2.944-4.1-.673-6.879-4.543-6.206-8.643s4.539-6.879 8.643-6.206c6.378 1.047 12.974 2.013 19.605 2.87 4.121.534 7.029 4.307 6.496 8.427-.491 3.794-3.727 6.56-7.452 6.56zm223.682-7.202c-3.482 0-6.608-2.431-7.354-5.975-.857-4.066 1.745-8.057 5.811-8.913 6.587-1.388 13.05-2.899 19.21-4.492 4.023-1.036 8.128 1.379 9.168 5.402 1.039 4.022-1.378 8.127-5.402 9.168-6.378 1.649-13.065 3.212-19.874 4.646-.522.11-1.044.164-1.559.164zm-283.832-3.994c-.61 0-1.229-.074-1.848-.231-6.81-1.719-13.441-3.578-19.71-5.522-3.969-1.23-6.188-5.446-4.957-9.414 1.232-3.97 5.45-6.187 9.415-4.957 6.015 1.865 12.386 3.65 18.937 5.305 4.029 1.017 6.47 5.108 5.452 9.136-.862 3.41-3.926 5.683-7.289 5.683zm342.513-13.2c-2.981 0-5.802-1.784-6.983-4.719-1.55-3.855.319-8.237 4.174-9.788 6.346-2.551 12.253-5.253 17.556-8.03 3.685-1.926 8.229-.505 10.156 3.175 1.927 3.681.505 8.228-3.175 10.156-5.747 3.008-12.113 5.923-18.924 8.661-.919.37-1.869.545-2.804.545zm-400.081-7.282c-1.143 0-2.303-.262-3.393-.813-6.788-3.437-12.905-7.08-18.183-10.828-3.388-2.406-4.184-7.102-1.778-10.49 2.406-3.389 7.103-4.185 10.491-1.777 4.67 3.316 10.143 6.569 16.266 9.67 3.707 1.877 5.191 6.404 3.314 10.111-1.324 2.617-3.971 4.127-6.717 4.127zm450.229-26.36c-1.486 0-2.988-.44-4.3-1.355-3.407-2.379-4.241-7.069-1.863-10.476 3.329-4.769 5.017-9.572 5.017-14.276.001-1.114-.092-2.239-.276-3.348-.681-4.099 2.091-7.974 6.189-8.654 4.101-.69 7.973 2.091 8.654 6.189.32 1.925.481 3.882.48 5.818 0 7.839-2.599 15.541-7.724 22.884-1.464 2.096-3.802 3.218-6.177 3.218zm-490.489-16.28c-3.873 0-7.162-2.971-7.489-6.9-.081-.976-.122-1.963-.12-2.937 0-7.025 2.098-13.967 6.237-20.623 2.193-3.528 6.833-4.611 10.362-2.417 3.529 2.193 4.611 6.833 2.417 10.362-2.633 4.235-3.968 8.504-3.968 12.688 0 .562.023 1.124.069 1.679.345 4.141-2.733 7.777-6.874 8.122-.214.018-.425.026-.634.026zm471.834-38.31c-1.455 0-2.924-.421-4.218-1.3-4.77-3.237-10.315-6.411-16.48-9.431-3.731-1.829-5.274-6.335-3.446-10.067 1.829-3.731 6.335-5.272 10.067-3.446 6.798 3.331 12.958 6.861 18.31 10.495 3.439 2.334 4.334 7.012 1.999 10.45-1.456 2.143-3.824 3.299-6.232 3.299zm-435.664-6.785c-2.671 0-5.258-1.425-6.621-3.939-1.98-3.653-.625-8.219 3.028-10.2 5.698-3.089 12.04-6.083 18.851-8.898 3.84-1.589 8.24.237 9.828 4.078 1.588 3.839-.239 8.24-4.078 9.827-6.327 2.617-12.191 5.382-17.428 8.222-1.14.617-2.369.91-3.58.91zm379.907-17.893c-.722 0-1.457-.105-2.183-.325-6.041-1.828-12.427-3.575-18.979-5.19-4.034-.995-6.498-5.072-5.504-9.107.995-4.034 5.069-6.498 9.107-5.504 6.805 1.678 13.445 3.494 19.735 5.4 3.977 1.204 6.226 5.404 5.021 9.38-.983 3.25-3.968 5.346-7.197 5.346zm-322.747-3.577c-3.331 0-6.376-2.229-7.268-5.602-1.063-4.017 1.332-8.135 5.349-9.198 6.363-1.683 13.042-3.282 19.853-4.752 4.062-.877 8.065 1.705 8.942 5.766.877 4.062-1.705 8.065-5.767 8.942-6.586 1.421-13.04 2.966-19.18 4.592-.644.171-1.292.252-1.929.252zm263.069-9.82c-.395 0-.794-.031-1.196-.095-6.399-1.023-13-1.963-19.62-2.795-4.123-.518-7.046-4.28-6.527-8.402.518-4.124 4.289-7.049 8.402-6.527 6.787.852 13.556 1.816 20.12 2.865 4.104.656 6.898 4.514 6.242 8.617-.592 3.701-3.788 6.337-7.421 6.337zm-203.033-1.926c-3.702 0-6.928-2.733-7.445-6.504-.564-4.116 2.316-7.911 6.433-8.475 6.602-.904 13.386-1.723 20.163-2.432 4.129-.448 7.834 2.566 8.266 6.699.433 4.133-2.566 7.833-6.699 8.266-6.62.694-13.244 1.493-19.688 2.376-.346.047-.69.07-1.03.07zm142.203-4.748c-.161 0-.321-.005-.484-.015-6.536-.416-13.211-.747-19.839-.986-4.152-.149-7.397-3.636-7.248-7.789.15-4.151 3.623-7.367 7.789-7.248 6.764.243 13.579.581 20.252 1.006 4.147.264 7.295 3.838 7.032 7.985-.253 3.984-3.564 7.047-7.502 7.047zm-81.25-.712c-3.998 0-7.327-3.148-7.51-7.183-.189-4.151 3.024-7.669 7.175-7.857 6.677-.303 13.495-.52 20.262-.645 4.16-.095 7.584 3.23 7.661 7.385s-3.229 7.584-7.384 7.661c-6.633.121-13.314.334-19.857.631-.116.005-.232.008-.347.008z" fill="#e8551a"/></g></g></g></svg>