<svg id="Layer_1" enable-background="new 0 0 512 512" height="512" viewBox="0 0 512 512" width="512" xmlns="http://www.w3.org/2000/svg"><g><path d="m250.498 35.413-32.128 34.678c-2.815 3.039-2.634 7.784.404 10.6 3.039 2.814 7.783 2.632 10.6-.404l19.126-20.644v248.922l-228.595 137.285 7.76-27.224c1.135-3.983-1.174-8.133-5.157-9.269-3.98-1.131-8.133 1.173-9.269 5.157l-12.957 45.461c-.019.068-.279 1.165-.279 2.116 0 .069-.004.138-.001.207.039 1.236.382 2.48 1.064 3.615 1.22 2.031 3.248 3.272 5.425 3.567l45.821 9.354c.506.104 1.011.153 1.508.153 3.489-.001 6.615-2.449 7.341-6.002.828-4.059-1.79-8.02-5.849-8.849l-27.405-5.595 221.206-132.847c1.15 2.665 3.8 4.532 6.887 4.532s5.737-1.867 6.887-4.532l221.206 132.847-27.405 5.595c-4.059.829-6.677 4.79-5.849 8.849.726 3.553 3.851 6.002 7.341 6.002.497 0 1.002-.05 1.508-.153l45.78-9.346c2.192-.286 4.24-1.533 5.466-3.576.682-1.136 1.025-2.379 1.064-3.615 0-1.444-.101-1.694-.279-2.322l-12.957-45.461c-1.136-3.984-5.287-6.289-9.269-5.157-3.983 1.136-6.292 5.285-5.157 9.269l7.76 27.224-228.596-137.285v-248.922l19.125 20.643c1.479 1.595 3.488 2.402 5.504 2.402 1.823 0 3.652-.661 5.096-1.998 3.038-2.815 3.219-7.561.404-10.6l-32.128-34.677c-2.883-3.207-7.898-3.251-11.003 0z" fill="#c3ced9"/><g><g><path d="m256 186.88-114.992 61.145 114.992 61.144 114.992-61.144z" fill="#fcf2b4"/></g><path d="m256 308.975v134.425l114.992-61.144v-134.231z" fill="#fce767"/><path d="m320.991 274.527v134.316l50.001-26.587v-134.232z" fill="#fcdf2b"/><path d="m141.008 248.025 114.992 60.95v134.425l-114.992-61.144z" fill="#fcdc19"/></g></g></svg>