<svg id="Layer_1" enable-background="new 0 0 512 512" height="512" viewBox="0 0 512 512" width="512" xmlns="http://www.w3.org/2000/svg"><g><path d="m250.495 35.414-32.127 34.677c-2.815 3.039-2.634 7.784.404 10.6 3.039 2.815 7.784 2.633 10.599-.404l19.129-20.644v248.923l-228.595 137.284 7.76-27.224c1.135-3.983-1.174-8.133-5.157-9.269-3.981-1.129-8.133 1.174-9.269 5.157l-12.957 45.461c-.02.069-.282 1.163-.282 2.326.04 1.235.382 2.478 1.064 3.613 1.22 2.031 3.25 3.273 5.429 3.568l45.818 9.353c.506.104 1.01.153 1.508.153 3.49-.001 6.616-2.449 7.341-6.002.828-4.059-1.79-8.02-5.849-8.849l-27.405-5.595 221.206-132.847c1.15 2.665 3.8 4.532 6.887 4.532s5.737-1.867 6.887-4.532l221.206 132.847-27.405 5.595c-4.059.829-6.677 4.79-5.849 8.849.726 3.553 3.851 6.002 7.341 6.002.497 0 1.002-.05 1.508-.153l45.783-9.346c2.192-.286 4.237-1.533 5.464-3.575.681-1.135 1.024-2.378 1.064-3.613 0-1.187-.261-2.257-.281-2.326l-12.957-45.461c-1.136-3.983-5.289-6.287-9.269-5.157-3.983 1.136-6.293 5.285-5.157 9.269l7.76 27.224-228.594-137.285v-248.922l19.125 20.644c1.478 1.595 3.487 2.402 5.504 2.402 1.823 0 3.652-.661 5.095-1.998 3.039-2.815 3.22-7.561.404-10.6l-32.127-34.677c-2.913-3.135-7.854-3.414-11.006 0z" fill="#c3ced9"/><g><g><path d="m256 186.88v256.521l114.992-61.145z" fill="#1ee3a5"/></g><path d="m332.909 402.506 38.083-20.25-114.992-195.376z" fill="#1cd198"/><path d="m256 186.88v256.521l-114.992-61.145z" fill="#15aa78"/></g></g></svg>