<svg id="Layer_1" enable-background="new 0 0 512 512" height="512" viewBox="0 0 512 512" width="512" xmlns="http://www.w3.org/2000/svg"><g><path d="m250.495 35.414-32.127 34.677c-2.815 3.039-2.634 7.784.404 10.6 3.039 2.815 7.784 2.633 10.599-.404l19.129-20.644v248.923l-228.595 137.284 7.76-27.224c1.135-3.983-1.174-8.133-5.157-9.269-3.981-1.129-8.133 1.174-9.269 5.157l-12.957 45.461c-.02.069-.282.964-.282 2.326.04 1.235.382 2.478 1.064 3.613 1.22 2.032 3.25 3.273 5.429 3.568l45.818 9.353c.506.104 1.01.153 1.508.153 3.49-.001 6.616-2.449 7.341-6.002.828-4.059-1.79-8.02-5.849-8.849l-27.405-5.595 228.094-136.983 228.094 136.984-27.405 5.595c-4.059.829-6.677 4.79-5.849 8.849.726 3.553 3.851 6.002 7.341 6.002.497 0 1.002-.05 1.508-.153l45.783-9.346c2.192-.286 4.237-1.533 5.464-3.575.681-1.135 1.024-2.378 1.064-3.613 0-.934-.059-1.714-.283-2.327l-12.957-45.461c-1.136-3.983-5.289-6.287-9.269-5.157-3.983 1.136-6.293 5.285-5.157 9.269l7.76 27.224-228.594-137.285v-248.922l19.125 20.644c1.478 1.595 3.487 2.402 5.504 2.402 1.823 0 3.652-.661 5.095-1.998 3.039-2.815 3.22-7.561.404-10.6l-32.127-34.677c-2.78-3.179-7.986-3.193-11.006 0z" fill="#c3ced9"/><g><g><g><circle cx="256" cy="311.436" fill="#ff8959" r="123.34"/></g></g><path d="m256 188.096c-8.567 0-16.931.874-25.006 2.537 56.13 11.558 98.334 61.252 98.334 120.803 0 59.552-42.204 109.245-98.334 120.803 8.075 1.663 16.438 2.537 25.006 2.537 68.119 0 123.34-55.221 123.34-123.34s-55.221-123.34-123.34-123.34z" fill="#ff7b45"/><g><g><path d="m256 356.006c-63.06 0-115.897-17.17-123.221-39.301 2.761 65.673 56.868 118.071 123.221 118.071s120.46-52.398 123.221-118.072c-7.324 22.132-60.161 39.302-123.221 39.302z" fill="#ff6a2e"/></g></g><path d="m323.578 348.765c-13.358 42.118-48.719 74.442-92.584 83.474 8.075 1.663 16.438 2.537 25.006 2.537 66.353 0 120.46-52.398 123.221-118.072-4.44 13.418-25.609 25.012-55.643 32.061z" fill="#fc5c1c"/></g></g></svg>