<svg id="Layer_1" enable-background="new 0 0 512 512" height="512" viewBox="0 0 512 512" width="512" xmlns="http://www.w3.org/2000/svg"><g><g><g><g><path d="m374.804 75.716v242.065c0 26.715-52.598 84.247-117.481 84.247s-117.481-57.532-117.481-84.247v-242.065z" fill="#fc7bd6"/><path d="m323.295 75.716v242.065c0 23.072-39.233 69.122-91.726 81.255 8.289 1.916 16.906 2.992 25.755 2.992 64.883 0 117.481-57.532 117.481-84.247v-242.065z" fill="#fc65cf"/><ellipse cx="257.323" cy="75.716" fill="#fcb1e6" rx="117.481" ry="48.372"/></g></g><g><g><path d="m373.534 178.903-138.467 57.038 138.467 57.039 138.466-57.039z" fill="#7affd5"/></g><path d="m373.534 292.799v174.441l138.466-57.039v-174.26z" fill="#1ee3a5"/><path d="m460.491 257.092v174.327l51.509-21.218v-174.26z" fill="#1cd198"/><path d="m235.067 235.941 138.467 56.858v174.441l-138.467-57.039z" fill="#15aa78"/></g></g><g><path d="m139.842 484.656v-221.866l-139.842 165.742z" fill="#fcf2b4"/><path d="m139.842 484.656v-221.866l139.843 165.742z" fill="#fce767"/><g><path d="m248.902 440.886 30.783-12.354-139.843-165.742z" fill="#fcdf2b"/></g></g></g></svg>