<svg id="Layer_1" enable-background="new 0 0 512 512" height="512" viewBox="0 0 512 512" width="512" xmlns="http://www.w3.org/2000/svg"><g><g><g><g><path d="m512 270.987c0 84.495-68.596 152.992-153.213 152.992s-153.213-68.497-153.213-152.992z" fill="#fce767"/><path d="m460.524 270.987c0 75.736-55.114 138.607-127.475 150.831 8.369 1.414 16.966 2.161 25.738 2.161 84.617 0 153.213-68.497 153.213-152.992z" fill="#fcdf2b"/><ellipse cx="358.787" cy="270.987" fill="#fcf2b4" rx="153.213" ry="58.865"/></g><path d="m358.787 152.099c-53.564 0-96.986 43.359-96.986 96.846 0 20.579 43.422 37.262 96.986 37.262s96.986-16.683 96.986-37.262c0-53.486-43.422-96.846-96.986-96.846z" fill="#fcdc19"/><path d="m358.787 152.099c-8.912 0-17.541 1.207-25.738 3.454 41.071 11.261 71.248 48.804 71.248 93.392 0 17.155-30.177 31.6-71.248 35.933 8.197.865 16.826 1.329 25.738 1.329 53.564 0 96.986-16.683 96.986-37.262 0-53.487-43.422-96.846-96.986-96.846z" fill="#f5d200"/></g><path d="m358.787 16.957c-84.617 0-153.213 68.497-153.213 152.992 0 32.51 68.596 58.865 153.213 58.865s153.213-26.355 153.213-58.865c0-84.495-68.596-152.992-153.213-152.992z" fill="#fcf2b4"/></g><g><g><g><circle cx="130.926" cy="364.116" fill="#ff8959" r="130.926"/></g></g><path d="m130.926 233.19c-9.094 0-17.972.928-26.544 2.693 59.582 12.269 104.382 65.019 104.382 128.233s-44.8 115.964-104.382 128.233c8.572 1.765 17.449 2.693 26.544 2.693 72.309 0 130.926-58.618 130.926-130.926s-58.617-130.926-130.926-130.926z" fill="#ff7b45"/><g><g><path d="m130.926 411.427c-66.939 0-123.025-18.226-130.799-41.718 2.931 69.713 60.365 125.334 130.799 125.334s127.869-55.621 130.799-125.334c-7.774 23.492-63.86 41.718-130.799 41.718z" fill="#ff6a2e"/></g></g><path d="m202.661 403.741c-14.18 44.709-51.715 79.02-98.279 88.608 8.572 1.765 17.449 2.693 26.544 2.693 70.434 0 127.869-55.62 130.799-125.334-4.713 14.243-27.183 26.55-59.064 34.033z" fill="#fc5c1c"/></g></g></svg>